<svg width="16" height="16" viewBox="0 0 16 16" fill="none" xmlns="http://www.w3.org/2000/svg">
<path d="M9.04697 13.9093L8.35322 14.6031C8.05947 14.8968 7.58447 14.8968 7.29385 14.6031L1.21885 8.5312C0.925098 8.23745 0.925098 7.76245 1.21885 7.47183L7.29385 1.39683C7.5876 1.10308 8.0626 1.10308 8.35322 1.39683L9.04697 2.09058C9.34385 2.38745 9.3376 2.87183 9.03447 3.16245L5.26885 6.74995H14.2501C14.6657 6.74995 15.0001 7.08433 15.0001 7.49995V8.49995C15.0001 8.91558 14.6657 9.24995 14.2501 9.24995H5.26885L9.03447 12.8375C9.34072 13.1281 9.34697 13.6125 9.04697 13.9093Z" fill="#6057EE"/>
</svg>
