<svg width="20" height="20" viewBox="0 0 20 20" fill="none" xmlns="http://www.w3.org/2000/svg">
<g clip-path="url(#clip0_496_811)">
<path d="M10.6227 10.5067L15.3595 10.5937C15.4745 10.5794 15.5803 10.5236 15.657 10.4368C15.7338 10.35 15.7761 10.2381 15.7761 10.1222C15.7761 10.0064 15.7338 9.89449 15.657 9.80767C15.5803 9.72085 15.4745 9.66507 15.3595 9.65084L10.6227 9.56393L10.5143 4.80569C10.5001 4.69069 10.4443 4.58486 10.3575 4.50812C10.2707 4.43138 10.1588 4.38902 10.0429 4.38902C9.92704 4.38902 9.81516 4.43138 9.72834 4.50812C9.64152 4.58486 9.58574 4.69069 9.57151 4.80569L9.68023 9.56422L4.83478 9.54242C4.71005 9.54336 4.59069 9.59333 4.50249 9.68153C4.41429 9.76973 4.36432 9.88909 4.36338 10.0138C4.36331 10.1391 4.4119 10.2595 4.49891 10.3497C4.54303 10.3935 4.59548 10.4281 4.65316 10.4514C4.71084 10.4747 4.77259 10.4862 4.83478 10.4852L9.68023 10.507L9.68023 15.3307C9.69446 15.4457 9.75024 15.5515 9.83706 15.6282C9.92388 15.705 10.0358 15.7473 10.1516 15.7473C10.2675 15.7473 10.3794 15.705 10.4662 15.6282C10.553 15.5515 10.6088 15.4457 10.623 15.3307L10.6227 10.5067Z" fill="#6057EE"/>
</g>
<defs>
<clipPath id="clip0_496_811">
<rect width="20" height="20" fill="white"/>
</clipPath>
</defs>
</svg>
