<svg width="24" height="24" viewBox="0 0 24 24" fill="none" xmlns="http://www.w3.org/2000/svg">
<path d="M24 12C24 18.6274 18.6274 24 12 24C5.37258 24 0 18.6274 0 12C0 5.37258 5.37258 0 12 0C18.6274 0 24 5.37258 24 12ZM2.64 12C2.64 17.1694 6.83062 21.36 12 21.36C17.1694 21.36 21.36 17.1694 21.36 12C21.36 6.83062 17.1694 2.64 12 2.64C6.83062 2.64 2.64 6.83062 2.64 12Z" fill="#E5E7EB"/>
<path d="M24 12C24 18.6274 18.6274 24 12 24C5.37258 24 0 18.6274 0 12C0 5.37258 5.37258 0 12 0C18.6274 0 24 5.37258 24 12ZM2.64 12C2.64 17.1694 6.83062 21.36 12 21.36C17.1694 21.36 21.36 17.1694 21.36 12C21.36 6.83062 17.1694 2.64 12 2.64C6.83062 2.64 2.64 6.83062 2.64 12Z" fill="#7DCD85"/>
<path d="M10.0757 16.2985L6.17573 12.3985C5.94142 12.1642 5.94142 11.7843 6.17573 11.55L7.02424 10.7015C7.25854 10.4672 7.63846 10.4672 7.87277 10.7015L10.5 13.3287L16.1272 7.70149C16.3615 7.46718 16.7414 7.46718 16.9758 7.70149L17.8243 8.55002C18.0586 8.78432 18.0586 9.16422 17.8243 9.39855L10.9243 16.2986C10.6899 16.5329 10.31 16.5329 10.0757 16.2985Z" fill="#7DCD85"/>
</svg>
