<svg width="20" height="20" viewBox="0 0 20 20" fill="none" xmlns="http://www.w3.org/2000/svg">
<path opacity="0.01" d="M20 20V0L0 0V20H20Z" fill="white"/>
<path d="M8.31054 15.0163C8.19021 15.0146 8.07545 14.9653 7.99137 14.8792L4.28846 11.0384C4.24629 10.997 4.21288 10.9475 4.19021 10.8928C4.16754 10.8382 4.15608 10.7796 4.15651 10.7205C4.15693 10.6614 4.16923 10.603 4.19268 10.5487C4.21613 10.4944 4.25025 10.4454 4.29301 10.4046C4.33577 10.3637 4.3863 10.3319 4.4416 10.311C4.49689 10.2901 4.55583 10.2805 4.61491 10.2828C4.67399 10.2851 4.73201 10.2992 4.78551 10.3244C4.83902 10.3495 4.88692 10.3852 4.92637 10.4292L8.31429 13.9392L16.0872 5.96589C16.1691 5.88196 16.281 5.834 16.3982 5.83255C16.5155 5.83111 16.6285 5.8763 16.7124 5.95818C16.7963 6.04007 16.8443 6.15194 16.8458 6.26919C16.8472 6.38644 16.802 6.49946 16.7201 6.58339L8.62471 14.8826C8.58392 14.9247 8.53511 14.9582 8.48116 14.9812C8.4272 15.0042 8.36919 15.0161 8.31054 15.0163Z" fill="white"/>
</svg>
