<svg width="22" height="22" viewBox="0 0 22 22" fill="none" xmlns="http://www.w3.org/2000/svg">
<path d="M21.875 6.29883V5.25879L20.4834 4.8291L20.376 4.32129L21.3574 3.31055L20.8496 2.36328L19.4336 2.72949L19.082 2.36328L19.4482 0.986328L18.5156 0.419922L17.4756 1.44531L16.9531 1.28906L16.6113 0H15.5078L15.2051 1.28906L14.6143 1.44531L13.6523 0.419922L12.7051 0.957031L13.1006 2.30957L12.7051 2.71973L11.3135 2.35352L10.7764 3.28613L11.7871 4.31152L11.6455 4.81934L10.2539 5.2002L10.2393 6.25977L11.6455 6.62598L11.7627 7.2168L10.7812 8.18848L11.2891 9.0918L12.7344 8.72559L13.0859 9.14551L12.6904 10.459L13.6621 11.0254L14.6094 10.0293L15.1758 10.1709L15.5029 11.5625L16.6064 11.5771L16.9336 10.1709L17.5 10L18.5107 11.0547L19.5068 10.4639L19.0771 9.09668L19.458 8.70117L20.8643 9.13086L21.3672 8.14941L20.3467 7.23145L20.4541 6.64062L21.875 6.29883ZM16.0547 8.50586C14.5264 8.50586 13.2812 7.26562 13.2812 5.73242C13.2812 4.19922 14.5215 2.95898 16.0547 2.95898C17.5879 2.95898 18.8281 4.19922 18.8281 5.73242C18.8281 7.27051 17.5879 8.50586 16.0547 8.50586ZM19.585 9.30664L21.875 10.0146V11.9629L19.1846 12.6172L18.9844 13.7256L20.8838 15.4492L19.9463 17.2998L17.3096 16.4844L16.5967 17.2266L17.4121 19.79L15.542 20.8984L13.6426 18.9209L12.583 19.2432L11.9678 21.8799L9.89746 21.8555L9.28223 19.2383L8.22266 18.9648L6.44531 20.8398L4.61914 19.7803L5.36133 17.3145L4.69238 16.5283L1.98242 17.2168L1.02051 15.5176L2.87109 13.6914L2.63672 12.5781L0 11.8896L0.0244141 9.89258L2.63672 9.1748L2.91504 8.21289L1.01562 6.28906L2.02637 4.54102L4.64355 5.22949L5.38574 4.46289L4.64355 1.92383L6.4209 0.913086L8.21777 2.83691L9.32617 2.53906L9.89258 0H11.9629L12.5293 2.24121L11.4258 1.95312L11.1182 1.87012L10.957 2.14844L10.4199 3.08105L10.2588 3.35449L10.4834 3.5791L11.3232 4.42871L11.3086 4.47754L10.1465 4.79492L9.84375 4.87793L9.83887 5.19043L9.8291 5.82031C7.50977 6.32812 5.76172 8.39844 5.76172 10.874C5.76172 13.7207 8.07129 16.0352 10.9229 16.0352C13.3887 16.0352 15.4492 14.3066 15.9619 11.9922L16.6064 12.002L16.9434 12.0068L17.0215 11.6797L17.2949 10.5078L17.3877 10.4785L18.2227 11.3477L18.4521 11.5869L18.7354 11.4209L19.7314 10.8301L20.0146 10.6592L19.917 10.3418L19.585 9.30664Z" fill="white"/>
</svg>
