<svg width="26" height="25" viewBox="0 0 26 25" fill="none" xmlns="http://www.w3.org/2000/svg">
<path d="M24.6501 15.8085L20.0629 8.92769C19.8727 8.64233 19.6149 8.40834 19.3125 8.24651C19.0101 8.08468 18.6724 8.00001 18.3295 8H6.67053C6.32756 8 5.98989 8.08468 5.6875 8.24651C5.38512 8.40834 5.12736 8.64232 4.93711 8.92769L0.349913 15.8085C0.121748 16.1507 -5.0231e-06 16.5528 1.5543e-10 16.9641L1.5543e-10 22.5833C1.5543e-10 23.7339 0.932726 24.6667 2.08333 24.6667H22.9167C24.0673 24.6667 25 23.7339 25 22.5833V16.9641C25 16.5528 24.8783 16.1507 24.6501 15.8085ZM7.04219 10.7778H17.9579L21.6615 16.3333H16.3194L14.9306 19.1111H10.0694L8.68056 16.3333H3.33845L7.04219 10.7778Z" fill="white"/>
<path d="M26 6C26 2.68629 23.3137 0 20 0C16.6863 0 14 2.68629 14 6C14 9.31371 16.6863 12 20 12C23.3137 12 26 9.31371 26 6Z" fill="#F8D07B"/>
</svg>
