<svg width="24" height="24" viewBox="0 0 24 24" fill="none" xmlns="http://www.w3.org/2000/svg">
<path d="M24 12C24 18.6274 18.6274 24 12 24C5.37258 24 0 18.6274 0 12C0 5.37258 5.37258 0 12 0C18.6274 0 24 5.37258 24 12ZM2.64 12C2.64 17.1694 6.83062 21.36 12 21.36C17.1694 21.36 21.36 17.1694 21.36 12C21.36 6.83062 17.1694 2.64 12 2.64C6.83062 2.64 2.64 6.83062 2.64 12Z" fill="#E5E7EB"/>
<path d="M12 24C8.8174 24 5.76515 22.7357 3.51472 20.4853C1.26428 18.2348 -8.85339e-08 15.1826 0 12C8.85339e-08 8.8174 1.26428 5.76515 3.51472 3.51472C5.76516 1.26428 8.8174 -3.79521e-08 12 0V2.64C9.51757 2.64 7.13682 3.62614 5.38148 5.38148C3.62614 7.13682 2.64 9.51757 2.64 12C2.64 14.4824 3.62614 16.8632 5.38148 18.6185C7.13682 20.3739 9.51757 21.36 12 21.36L12 24Z" fill="#6057EE"/>
</svg>
