<svg width="16" height="17" viewBox="0 0 16 17" fill="none" xmlns="http://www.w3.org/2000/svg">
<g clip-path="url(#clip0_496_573)">
<path d="M15.5594 4.9406L14.1187 6.38123C13.9719 6.5281 13.7344 6.5281 13.5875 6.38123L10.1187 2.91248C9.97187 2.7656 9.97187 2.5281 10.1187 2.38123L11.5594 0.940601C12.1437 0.356226 13.0937 0.356226 13.6812 0.940601L15.5594 2.81873C16.1469 3.4031 16.1469 4.3531 15.5594 4.9406ZM8.88124 3.61873L0.674992 11.825L0.0124919 15.6218C-0.0781331 16.1343 0.368742 16.5781 0.881242 16.4906L4.67812 15.825L12.8844 7.61873C13.0312 7.47185 13.0312 7.23435 12.8844 7.08748L9.41562 3.61873C9.26562 3.47185 9.02812 3.47185 8.88124 3.61873ZM3.87812 11.1218C3.70624 10.95 3.70624 10.675 3.87812 10.5031L8.69062 5.6906C8.86249 5.51873 9.13749 5.51873 9.30937 5.6906C9.48124 5.86248 9.48124 6.13748 9.30937 6.30935L4.49687 11.1218C4.32499 11.2937 4.04999 11.2937 3.87812 11.1218ZM2.74999 13.75H4.24999V14.8843L2.23437 15.2375L1.26249 14.2656L1.61562 12.25H2.74999V13.75Z" fill="#6057EE"/>
</g>
<defs>
<clipPath id="clip0_496_573">
<rect width="16" height="16" fill="white" transform="translate(0 0.5)"/>
</clipPath>
</defs>
</svg>
