<svg width="20" height="20" viewBox="0 0 20 20" fill="none" xmlns="http://www.w3.org/2000/svg">
<path d="M17.4205 4.52583L15.5155 2.62083C15.4381 2.54351 15.3332 2.50005 15.2238 2.5H2.91297C2.80334 2.5 2.69821 2.54355 2.6207 2.62106C2.54318 2.69858 2.49963 2.80371 2.49963 2.91333V17.1283C2.49958 17.1826 2.51023 17.2364 2.53099 17.2866C2.55174 17.3367 2.58218 17.3823 2.62057 17.4207C2.65897 17.4591 2.70455 17.4896 2.75473 17.5103C2.8049 17.5311 2.85867 17.5417 2.91297 17.5417H17.128C17.1823 17.5418 17.2362 17.5313 17.2865 17.5106C17.3367 17.4899 17.3824 17.4594 17.4209 17.421C17.4594 17.3826 17.4899 17.337 17.5107 17.2868C17.5315 17.2365 17.5422 17.1827 17.5421 17.1283V4.81833C17.5421 4.76398 17.5313 4.71017 17.5104 4.65998C17.4895 4.60979 17.459 4.56421 17.4205 4.52583ZM9.01005 3.32667H13.8713V7.5475C13.8712 7.56603 13.8638 7.58377 13.8507 7.59688C13.8376 7.60998 13.8198 7.61739 13.8013 7.6175H9.08213C9.0636 7.61739 9.04586 7.60998 9.03276 7.59688C9.01965 7.58377 9.01224 7.56603 9.01213 7.5475L9.01005 3.32667ZM14.4405 16.715H5.60047V10.7188H14.4405V16.715ZM16.7146 16.715H15.2671V10.305C15.2672 10.2507 15.2565 10.1969 15.2358 10.1468C15.215 10.0966 15.1846 10.051 15.1462 10.0126C15.1078 9.97421 15.0622 9.94377 15.012 9.92302C14.9619 9.90227 14.9081 9.89161 14.8538 9.89167H5.18713C5.13284 9.89161 5.07907 9.90227 5.02889 9.92302C4.97872 9.94377 4.93313 9.97421 4.89474 10.0126C4.85635 10.051 4.8259 10.0966 4.80515 10.1468C4.7844 10.1969 4.77375 10.2507 4.7738 10.305V16.715H3.3263V3.32667H8.18547V7.5475C8.18569 7.78524 8.28023 8.01319 8.44834 8.1813C8.61645 8.34941 8.84439 8.44395 9.08213 8.44417H13.8017C14.0395 8.44406 14.2675 8.34955 14.4356 8.18142C14.6038 8.01328 14.6983 7.78528 14.6984 7.5475V3.32667H15.0526L16.7151 4.98917L16.7146 16.715Z" fill="#6057EE"/>
</svg>
